# xmcd
#
# Track frame offsets:
#	150
#	14739
#	30987
#	48369
#	65104
#	83046
#	97637
#	111418
#	126852
#	145054
#	162454
#	179681
#	198249
#	212009
#	227783
#	244411
#	261349
#	276298
#	294388
#	312173
#	329504
#	347462
#
# Disc length: 4798 seconds
#
# Revision: 1
# Processed by: cddbd v1.5.2PL0 Copyright (c) Steve Scherf et al.
# Submitted via: audiograbber 1.83.01
#
DISCID=4c12bc16
DTITLE=Various Artist - X-Mix Radioactive Mainstream and Rock 147 (June 2010)
DYEAR=2010
DGENRE=
TTITLE0=Against Me! - I Was A Teenage Anarchist (152 BPM)
TTITLE1=American Bang - Wild And Young  (142 BPM)
TTITLE2=Rob Thomas - Mockingbird  (142 BPM)
TTITLE3=The Spill Canvas - Our Song (140 BPM)
TTITLE4=Korn - Oildale (Leave Me Alone) (136 BPM)
TTITLE5=Mayday Parade - Kids In love  (135 BPM)
TTITLE6=New Politics - Yeah, Yeah, Yeah  (135 BPM)
TTITLE7=Ozzy Osbourne - Let Me Hear You Scream  (130 BPM)
TTITLE8=Sam Adams - Driving Me Crazy  (121 BPM)
TTITLE9=Green Day - Last Of The American Girls  (121 BPM)
TTITLE10=Days Difference - Speakers  (116 BPM)
TTITLE11=ohn Mayer and Taylor Swift - Half Of My Heart  (115 BPM)
TTITLE12=Sarah McLachian - Loving You Is Easy  (112 BPM)
TTITLE13=The Black Keys - Tighten Up  (110 BPM)
TTITLE14=Rehab - Welcome Home (108 BPM)
TTITLE15=Switchfoot - The Sound (104 BPM)
TTITLE16=Paper Tongues - Ride To California  (101 BPM)
TTITLE17=Kris Allen - Pat Monahan - The Truth  (101 BPM)
TTITLE18=The Rolling Stones - Plundered My Soul  (99 BPM)
TTITLE19=Train - If It's Love (95 BPM)
TTITLE20=Saving Abel - Stupid Girl (Only In Hollywood) (75 BPM)
TTITLE21=Owl City - Hello Seattle  (59 BPM)
EXTD=
EXTT0=
EXTT1=
EXTT2=
EXTT3=
EXTT4=
EXTT5=
EXTT6=
EXTT7=
EXTT8=
EXTT9=
EXTT10=
EXTT11=
EXTT12=
EXTT13=
EXTT14=
EXTT15=
EXTT16=
EXTT17=
EXTT18=
EXTT19=
EXTT20=
EXTT21=
PLAYORDER=
